<svg xmlns="http://www.w3.org/2000/svg" width="2718.121" height="792" viewBox="0 0 2718.121 792">
  <defs>
    <style>
      .cls-1 {
        fill: #fff;
        fill-rule: evenodd;
      }
    </style>
  </defs>
  <path id="Color_Fill_2" data-name="Color Fill 2" class="cls-1" d="M386,0c22.76,21.4,40.75,56.8,54,87,9.161,20.883,18.74,43.361,25,68,41.913,164.962-99.777,289.522-185,352-22.992,16.856-97.7,79.109-127,80l-7-4c-7.232-19.673-3.852-45.074,2-64,23.083-74.657,67.742-98.342,121-141,66.081-52.93,167.162-173.089,139-307C402.581,45.237,393.271,22.58,386,0Zm81,101,1,2Zm1,2c19.468,16.755,31.865,47.144,44,71,11.123,21.867,21.346,46.472,28,73,36.93,147.232-66.867,275.713-142,336L295,664c-9.6,7.672-28.108,23.143-25,42,5.69,34.523,57.639,45.092,90,54,67.895,18.69,154.913,22.741,239,23H735l-146,8-99,1H399l-119-3-116-7c-44.853-7.4-165.653-4.91-163-49,22.364-44.625,120.025-90.864,165-119,113.033-70.713,223.727-144.3,292-260,22.871-38.761,47.689-101.365,35-167C486.9,155.44,476.311,129.855,468,103Zm89,114c20.13,19.292,34.3,51.876,46,79,8.887,20.612,17.467,43.424,23,68,10.711,47.575.831,104.185-12,140-34.888,97.383-121.26,179.829-200,234-27.671,19.037-117.212-9.494-118-38,11.574-24.918,89.027-75.038,114-95,61.883-49.466,116.605-117.383,147-198,8.8-23.343,21.582-61.836,16-96C567.527,277.506,561.834,245.906,557,217Z" transform="translate(-0.969)"/>
  <path id="Estudante_UFFS" data-name="Estudante UFFS" class="cls-1" d="M1229.87,642.915v4h-95.6v-142.8h94.8v4h-90.8v62.4h85.4v4h-85.4v68.4h91.6Zm96.6-81.6a23.254,23.254,0,0,0-6.8-8.9,28.091,28.091,0,0,0-10.5-5.1,53.293,53.293,0,0,0-13.5-1.6q-10.8,0-17,2.9a25.647,25.647,0,0,0-9.2,6.6,17.908,17.908,0,0,0-3.8,7.3,27.889,27.889,0,0,0-.8,5q0,7.6,3.1,11.7a19.816,19.816,0,0,0,8.3,6.3,88.6,88.6,0,0,0,11.7,3.8q6.3,1.6,14.7,3.8,6,1.6,11.9,3.3a40.378,40.378,0,0,1,10.6,4.7,24.342,24.342,0,0,1,7.6,7.6q2.895,4.6,2.9,12a24.864,24.864,0,0,1-3.3,13.2,27.136,27.136,0,0,1-8.6,8.8,36.868,36.868,0,0,1-12,4.9,60.749,60.749,0,0,1-13.3,1.5q-20.6,0-31.1-9t-10.5-28.4h4q0,17.4,9.7,25.5t27.9,8.1a53.224,53.224,0,0,0,11.5-1.3,35.1,35.1,0,0,0,10.7-4.2,24.97,24.97,0,0,0,7.9-7.5,19.547,19.547,0,0,0,3.1-11.2q0-6.8-3.1-11a24.423,24.423,0,0,0-8-6.9,47.017,47.017,0,0,0-11.3-4.3q-6.4-1.6-13-3.2-7.395-1.8-13-3.4a71.661,71.661,0,0,1-10-3.6,19.709,19.709,0,0,1-9.4-7.8q-3-5-3-13.4a24.143,24.143,0,0,1,1.8-8.8,22.335,22.335,0,0,1,6-8.4,32.431,32.431,0,0,1,10.8-6.2,47.711,47.711,0,0,1,16.2-2.4q17.2,0,27.2,7.8t10,25h-4A32.436,32.436,0,0,0,1326.47,561.315Zm59,65.6a24.627,24.627,0,0,0,1.3,9,11.593,11.593,0,0,0,3.3,4.8,8.63,8.63,0,0,0,4.4,1.9,38.663,38.663,0,0,0,4.8.3q3,0,5.4-.1a11.3,11.3,0,0,0,3.4-.5v4c-1.2.135-2.37,0.269-3.5,0.4s-3.23.2-6.3,0.2a17.919,17.919,0,0,1-11.9-4.1q-4.9-4.1-4.9-15.1v-79.6h-18.8v-4h18.8v-32.4h4v32.4h23.2v4h-23.2v78.8Zm131.2,20v-25.4h-0.4a35.38,35.38,0,0,1-12.3,19.8q-9.495,7.8-24.7,7.8a45.084,45.084,0,0,1-14.7-2.3,31.066,31.066,0,0,1-11.6-7,31.873,31.873,0,0,1-7.6-11.6,43.426,43.426,0,0,1-2.7-15.9v-68.2h4v67.6a40.174,40.174,0,0,0,2.6,15.3,28.486,28.486,0,0,0,7.1,10.4,27.973,27.973,0,0,0,10.4,6,40.448,40.448,0,0,0,12.5,1.9,35.768,35.768,0,0,0,16.2-3.5,34.31,34.31,0,0,0,11.7-9.4,41.209,41.209,0,0,0,7.1-13.7,55.446,55.446,0,0,0,2.4-16.4v-58.2h4v102.8h-4Zm130-142.8v142.8h-4v-28.8h-0.4a43.535,43.535,0,0,1-14.7,22.4q-10.695,8.6-26.5,8.6a39.777,39.777,0,0,1-32.1-15.1,50.05,50.05,0,0,1-8.7-16.9,76.218,76.218,0,0,1-.1-42,54.336,54.336,0,0,1,8.4-17.2,41.06,41.06,0,0,1,13.7-11.8,39.169,39.169,0,0,1,18.8-4.4q16.4,0,27,8.6a41.563,41.563,0,0,1,14.2,22.6h0.4v-68.8h4Zm-15.4,54.5q-11.4-12.9-30.2-12.9a34.7,34.7,0,0,0-18,4.5,38.288,38.288,0,0,0-12.4,11.6,51.136,51.136,0,0,0-7.1,16,71.438,71.438,0,0,0-2.3,17.9,69.78,69.78,0,0,0,2.5,18.8,50.575,50.575,0,0,0,7.4,15.9,35.492,35.492,0,0,0,12.4,10.9,36.611,36.611,0,0,0,17.5,4,37.8,37.8,0,0,0,17.7-4,39.153,39.153,0,0,0,13-10.8,49.313,49.313,0,0,0,8.1-15.8,63.479,63.479,0,0,0,2.8-19Q1642.67,571.518,1631.27,558.615Zm61.6,3.8a30.913,30.913,0,0,1,7.5-10.9,34.647,34.647,0,0,1,12-7.2,48.589,48.589,0,0,1,16.7-2.6,57.709,57.709,0,0,1,12.9,1.4,27.761,27.761,0,0,1,10.7,4.9,25.746,25.746,0,0,1,7.4,9.1,33.169,33.169,0,0,1,3,14v65.4a6.668,6.668,0,0,0,1.2,4.4,5.95,5.95,0,0,0,3.2,1.9,14.808,14.808,0,0,0,4.3.4c1.53-.065,2.96-0.165,4.3-0.3v4h-6a14.016,14.016,0,0,1-7.7-2.1q-3.3-2.1-3.3-7.9v-13.4h-0.4a32,32,0,0,1-5.1,9.6,37.3,37.3,0,0,1-8.8,8.2,45.172,45.172,0,0,1-12.1,5.7,49.99,49.99,0,0,1-14.8,2.1q-15.6,0-25-6.9t-9.4-20.7q0-9.6,3.1-15.4a24.353,24.353,0,0,1,8.1-9.1,32.042,32.042,0,0,1,11.4-4.6,93.969,93.969,0,0,1,12.8-1.7q10.59-.6,18.2-1.1a56.253,56.253,0,0,0,12.5-2,13.588,13.588,0,0,0,7.2-4.6q2.3-3.1,2.3-8.9a61.222,61.222,0,0,0-.8-9.6,21.015,21.015,0,0,0-3.9-9.2,22.435,22.435,0,0,0-9.1-6.9q-6-2.7-16.2-2.7-16.2,0-25.2,7.9t-10,22.3h-4A40.765,40.765,0,0,1,1692.87,562.415Zm65.8,24.1a12.506,12.506,0,0,1-6.2,4.3,50.55,50.55,0,0,1-9.6,2.3,101.278,101.278,0,0,1-11.7,1q-6.3.2-12.3,0.6a95.973,95.973,0,0,0-11.7,1.5,27.715,27.715,0,0,0-10.1,4,20.428,20.428,0,0,0-7,8q-2.61,5.1-2.6,13.3a26.234,26.234,0,0,0,1.5,8.7,18.47,18.47,0,0,0,5.1,7.6,27.813,27.813,0,0,0,9.3,5.4,41.089,41.089,0,0,0,14.1,2.1,44.135,44.135,0,0,0,17.8-3.4,40.286,40.286,0,0,0,13.1-8.9,36.689,36.689,0,0,0,8-12.7,41.815,41.815,0,0,0,2.7-14.8v-19h-0.4Zm51.6-42.4v25.4h0.4a36.267,36.267,0,0,1,4.5-11,34.737,34.737,0,0,1,18.7-14.7,42.8,42.8,0,0,1,13.8-2.1,43.337,43.337,0,0,1,14.7,2.4,31.359,31.359,0,0,1,19.2,18.7,43.426,43.426,0,0,1,2.7,15.9v68.2h-4v-67.6a40.174,40.174,0,0,0-2.6-15.3,28.642,28.642,0,0,0-7.1-10.4,28.083,28.083,0,0,0-10.4-6,40.614,40.614,0,0,0-12.5-1.9,35.761,35.761,0,0,0-16.2,3.5,34.4,34.4,0,0,0-11.7,9.4,41.064,41.064,0,0,0-7.1,13.7,55.465,55.465,0,0,0-2.4,16.4v58.2h-4v-102.8h4Zm127,82.8a24.627,24.627,0,0,0,1.3,9,11.411,11.411,0,0,0,3.3,4.8,8.63,8.63,0,0,0,4.4,1.9,38.663,38.663,0,0,0,4.8.3q3,0,5.4-.1a11.3,11.3,0,0,0,3.4-.5v4c-1.2.135-2.37,0.269-3.5,0.4s-3.24.2-6.3,0.2a17.9,17.9,0,0,1-11.9-4.1q-4.9-4.1-4.9-15.1v-79.6h-18.8v-4h18.8v-32.4h4v32.4h23.2v4h-23.2v78.8Zm57.7-11.3a45.269,45.269,0,0,0,7.1,15.5,33.64,33.64,0,0,0,12.4,10.4q7.59,3.8,18.6,3.8,16.2,0,26.9-8.5t13.3-25.5h4q-2.2,18-14.2,27.9t-29.6,9.9q-12,.2-20.5-3.8a36.03,36.03,0,0,1-13.9-11.3,49.825,49.825,0,0,1-8-17.2,83.323,83.323,0,0,1-2.6-21.3,63.739,63.739,0,0,1,3.8-22.8,53.127,53.127,0,0,1,10-16.9,42.083,42.083,0,0,1,31.2-14.1q12,0,20.7,4.6a40.8,40.8,0,0,1,14.2,12.2,50.978,50.978,0,0,1,8,17.4,71.731,71.731,0,0,1,2.1,20.4h-86A82.866,82.866,0,0,0,1994.97,615.615Zm76.9-41.2a44.7,44.7,0,0,0-7.7-14.9,36.441,36.441,0,0,0-12.7-10.1,39.8,39.8,0,0,0-17.6-3.7,38.687,38.687,0,0,0-15.7,3.2,37.141,37.141,0,0,0-12.8,9.3,47.968,47.968,0,0,0-8.9,14.7,61.781,61.781,0,0,0-4,19.4h82A60.989,60.989,0,0,0,2071.87,574.415Zm222.8-70.3v89.6q0,28.8-13.4,42.6t-39,13.8q-25.605,0-39-13.8-13.41-13.8-13.4-42.6v-89.6h4v89.6q0,25.8,11.8,39.2t36.6,13.4q24.8,0,36.6-13.4t11.8-39.2v-89.6h4Zm121.59,66.4v4h-76v72.4h-4v-142.8h88v4h-84v62.4h76Zm116.2,0v4h-76v72.4h-4v-142.8h88v4h-84v62.4h76Zm127.5-44.9a34.34,34.34,0,0,0-9.8-12.2,37.824,37.824,0,0,0-14.5-6.7,77.684,77.684,0,0,0-18-2,83.481,83.481,0,0,0-15.4,1.5,44.832,44.832,0,0,0-14.5,5.3,32.246,32.246,0,0,0-10.7,10.1q-4.2,6.3-4.2,15.9t4.3,15.4a32.17,32.17,0,0,0,11.2,9.4,64.785,64.785,0,0,0,15.7,5.6q8.79,2,18,4.2,9.99,2.6,18.9,5a59.943,59.943,0,0,1,15.5,6.4,30.185,30.185,0,0,1,10.5,10.6q3.9,6.6,3.9,17.8,0,10.2-4.4,17.4a37.336,37.336,0,0,1-11.6,11.9,50.216,50.216,0,0,1-16.2,6.8,79.858,79.858,0,0,1-18.2,2.1,85.541,85.541,0,0,1-22.5-2.8,47.517,47.517,0,0,1-17.8-8.9,40.115,40.115,0,0,1-11.6-15.7q-4.11-9.6-3.9-23.2h4q0,12.8,3.8,21.7a36.934,36.934,0,0,0,10.7,14.5,42.924,42.924,0,0,0,16.4,8.1,81.907,81.907,0,0,0,20.9,2.5,74.521,74.521,0,0,0,16.7-1.9,47.064,47.064,0,0,0,14.9-6.1,33.852,33.852,0,0,0,10.7-10.8,29.372,29.372,0,0,0,4.1-15.8q0-10.8-4.7-17.1a33.91,33.91,0,0,0-12-10,66.55,66.55,0,0,0-16.2-5.6q-8.91-1.9-17.1-3.9-8.61-2-17.2-4.2a62.985,62.985,0,0,1-15.5-6.1,31.356,31.356,0,0,1-11.1-10.4q-4.2-6.5-4.2-16.9,0-10.6,4.4-17.7a33.564,33.564,0,0,1,11.4-11.3,49.852,49.852,0,0,1,15.7-6,85.149,85.149,0,0,1,17.3-1.8,78.021,78.021,0,0,1,19.5,2.3,43.416,43.416,0,0,1,15.6,7.4,36.415,36.415,0,0,1,10.7,13.4q3.99,8.3,4.6,20.3h-4Q2663.655,533.119,2659.96,525.615Z" transform="translate(-0.969)"/>
  <path id="Jean_Rossa" data-name="Jean Rossa" class="cls-1" d="M1189.61,313.64q-2.31,11.5-4.89,20.988a65.11,65.11,0,0,1-6.61,16.244,30.317,30.317,0,0,1-10.06,10.493q-6.045,3.741-15.53,3.738-12.93,0-19.69-6.181t-6.76-18.832a75.243,75.243,0,0,1,.86-11.356,109.043,109.043,0,0,1,2.3-11.069H1095.6a98.939,98.939,0,0,0-2.45,13.944,145.764,145.764,0,0,0-.72,14.806,59.647,59.647,0,0,0,2.02,13.944,39.906,39.906,0,0,0,8.05,15.669q6.03,7.479,17.39,12.937t30.04,5.463a96.489,96.489,0,0,0,16.39-1.438,67.3,67.3,0,0,0,15.81-4.743,62.99,62.99,0,0,0,14.23-8.769,54.24,54.24,0,0,0,11.94-13.8,101.012,101.012,0,0,0,7.04-16.1q3.3-9.487,5.89-19.119t4.46-18.112q1.86-8.476,3.02-13.369l23.57-114.713h-35.93Zm107.52-11.5q4.89-17.25,15.81-28.318t29.33-11.069q14.655,0,23,8.481,8.325,8.484,8.34,21.706v4.6a42.606,42.606,0,0,1-.29,4.6h-76.19Zm67.28,41.4q-3.45,11.793-12.94,17.969t-22.71,6.181q-18.705,0-27.03-9.487-8.34-9.487-8.34-25.013v-4.6a22.192,22.192,0,0,1,.58-4.887h110.69q0.57-3.733,1.15-8.338a82.073,82.073,0,0,0,.57-10.062,116.733,116.733,0,0,0-2.44-23,59.723,59.723,0,0,0-9.35-22.138,53.251,53.251,0,0,0-19.26-16.675q-12.36-6.609-32.2-6.612t-35.22,7.906a79.905,79.905,0,0,0-25.87,20.844,92.479,92.479,0,0,0-15.96,29.325,105.732,105.732,0,0,0-5.46,33.637,70.914,70.914,0,0,0,4.89,27.169,60.114,60.114,0,0,0,13.51,20.413,57.689,57.689,0,0,0,20.55,12.937,73.855,73.855,0,0,0,26.02,4.456q26.745,0,45.28-11.931,18.555-11.927,26.31-38.094h-32.77Zm100.48-9.056a35.634,35.634,0,0,1,13.51-7.475,73.229,73.229,0,0,1,16.96-3.019q9.06-.572,15.96-1.15a80.8,80.8,0,0,0,11.21-2.012,19.31,19.31,0,0,0,9.2-4.888l0.58,0.575a136.941,136.941,0,0,1-4.75,19.982,52.9,52.9,0,0,1-8.34,16.243,37.863,37.863,0,0,1-13.51,10.925q-8.19,4.03-20.27,4.025a42.737,42.737,0,0,1-9.2-1.006,28.866,28.866,0,0,1-8.34-3.162,18.663,18.663,0,0,1-6.18-5.75,15.744,15.744,0,0,1-2.44-9.057Q1459.28,339.519,1464.89,334.484ZM1568.82,293.8a108.877,108.877,0,0,0,2.87-22.425,53.1,53.1,0,0,0-1.15-9.919q-1.155-5.889-6.47-11.356t-16.67-9.344q-11.37-3.88-31.48-3.881a121.129,121.129,0,0,0-24.87,2.444,61.838,61.838,0,0,0-20.84,8.337,53.334,53.334,0,0,0-15.53,15.238q-6.33,9.345-8.91,23.143h31.05q3.45-13.8,13.51-18.543t23.57-4.744a40.077,40.077,0,0,1,17.54,3.594q7.47,3.6,7.48,14.231,0,8.342-4.17,13.656t-13.08,5.894q-8.055.579-16.25,1.294t-16.53,1.293a131.783,131.783,0,0,0-23.57,3.738,60.393,60.393,0,0,0-19.84,8.912,45.334,45.334,0,0,0-13.8,15.382q-5.175,9.345-5.18,23.143a38.09,38.09,0,0,0,3.74,17.25,34.678,34.678,0,0,0,10.21,12.363,47.658,47.658,0,0,0,14.81,7.475,58.758,58.758,0,0,0,17.53,2.587,81.825,81.825,0,0,0,27.03-4.6,59.944,59.944,0,0,0,23-14.375q0.57,8.625,6.04,13.8a19.228,19.228,0,0,0,13.8,5.175,64.442,64.442,0,0,0,12.93-1.293q6.33-1.295,12.65-2.732l5.18-23.575a40.692,40.692,0,0,0-5.75,1.007,23.648,23.648,0,0,1-5.75.718q-4.035,0-5.46-1.725a7.362,7.362,0,0,1-1.44-4.887,26.707,26.707,0,0,1,1-6.9c0.67-2.489,1.3-5.076,1.87-7.763Zm28.17,95.737h32.78l16.67-80.5a77.415,77.415,0,0,1,6.18-17.681,53.094,53.094,0,0,1,9.92-14.231,59.916,59.916,0,0,1,13.66-10.206,35.628,35.628,0,0,1,17.39-4.169q8.91,0,13.66,2.587a16.541,16.541,0,0,1,6.76,6.182,16.139,16.139,0,0,1,2.15,7.187c0.1,2.4.14,4.169,0.14,5.319a33.028,33.028,0,0,1-.71,6.612q-0.72,3.45-1.58,7.188l-18.98,91.712h32.77l19.84-94.875a59.3,59.3,0,0,0,1.15-9.2q0.285-5.175.29-9.2,0-18.112-10.49-28.75t-32.92-10.637a62.415,62.415,0,0,0-51.18,26.162l-0.57-.575,4.6-21.562h-30.77ZM1941.7,213.59h50.31a91.81,91.81,0,0,1,13.8,1.007,34.99,34.99,0,0,1,11.79,3.881,21.126,21.126,0,0,1,8.2,8.194q3.015,5.323,3.01,13.656,0,18.112-12.36,27.744t-35.36,9.631h-52.61Zm-73.02,175.95h36.51l17.54-84.525h42.83q7.185,0,14.09.432a40.377,40.377,0,0,1,12.36,2.587,18.615,18.615,0,0,1,8.77,7.044q3.3,4.892,3.31,13.8a144.452,144.452,0,0,1-1.73,22.281,146.4,146.4,0,0,0-1.72,22.569,69.815,69.815,0,0,0,.43,8.05,35.065,35.065,0,0,0,1.87,7.762h37.66a25.075,25.075,0,0,1-3.02-8.337,52.29,52.29,0,0,1-.72-8.625,113.64,113.64,0,0,1,1.44-21.275,132.675,132.675,0,0,0,1.73-21.275q0-12.937-4.46-22.569t-17.39-14.519v-0.575q21.84-4.021,34.21-17.681t12.36-38.094q0-18.684-7.62-29.181a49.267,49.267,0,0,0-18.11-15.669,63.212,63.212,0,0,0-21.42-6.325q-10.92-1.145-17.54-1.15h-88.83Zm325.88-115.862q8.19,10.929,8.19,27.312a94.324,94.324,0,0,1-3.02,23.144,70.48,70.48,0,0,1-9.34,21.563,54.726,54.726,0,0,1-15.67,15.812q-9.345,6.186-21.99,6.181-17.835,0-26.02-10.925-8.205-10.922-8.2-27.312a92.659,92.659,0,0,1,3.02-23,70.533,70.533,0,0,1,9.35-21.419,56.4,56.4,0,0,1,15.66-15.956q9.345-6.321,22-6.325Q2186.36,262.753,2194.56,273.678Zm-8.34,112.7a79.554,79.554,0,0,0,26.74-19.694,85.347,85.347,0,0,0,16.82-29.469,113.077,113.077,0,0,0,5.75-36.512q0-31.333-17.11-47.581t-47.87-16.244a80.1,80.1,0,0,0-34.93,7.475,82.029,82.029,0,0,0-26.74,20.125,91.46,91.46,0,0,0-17.1,29.181,100.931,100.931,0,0,0-6.04,34.931q0,31.341,17.1,48.157t47.87,16.818Q2170.555,393.565,2186.22,386.378ZM2397.1,284.315q0.285-13.8-4.17-23a37.243,37.243,0,0,0-12.36-14.662,49.681,49.681,0,0,0-18.55-7.619,114.227,114.227,0,0,0-22.71-2.156,97.034,97.034,0,0,0-22.43,2.587,63.77,63.77,0,0,0-19.55,8.05,43.469,43.469,0,0,0-13.94,14.088q-5.325,8.625-5.32,20.7a36.244,36.244,0,0,0,2.59,14.375,31.864,31.864,0,0,0,7.19,10.494,46.387,46.387,0,0,0,10.49,7.618,85.963,85.963,0,0,0,12.51,5.463q7.755,2.877,15.95,5.031a97.447,97.447,0,0,1,14.67,5.031,40.529,40.529,0,0,1,10.63,6.613,12.187,12.187,0,0,1,4.17,9.487,17.371,17.371,0,0,1-3.02,10.494,20.637,20.637,0,0,1-7.62,6.469,37.375,37.375,0,0,1-10.06,3.306,58.4,58.4,0,0,1-10.64,1.006,56.871,56.871,0,0,1-13.22-1.437,31.381,31.381,0,0,1-10.49-4.456,20.016,20.016,0,0,1-6.9-8.05,24.531,24.531,0,0,1-2.16-11.932h-31.05q0.285,15.243,5.17,25.157a41.261,41.261,0,0,0,13.23,15.812,52.893,52.893,0,0,0,19.55,8.338,113.45,113.45,0,0,0,24.15,2.443,107.376,107.376,0,0,0,24.01-2.731,64.34,64.34,0,0,0,21.13-8.769,49.375,49.375,0,0,0,14.95-15.237q5.745-9.2,5.75-22.138a36.82,36.82,0,0,0-2.88-15.093,35,35,0,0,0-7.62-11.069,44.147,44.147,0,0,0-11.07-7.763q-6.315-3.159-12.93-5.75-7.77-2.87-15.53-5.031t-14.09-4.6a37.474,37.474,0,0,1-10.2-5.606,10.218,10.218,0,0,1-3.88-8.338,17.447,17.447,0,0,1,2.15-9.056,16.523,16.523,0,0,1,5.75-5.75,24.64,24.64,0,0,1,8.05-3.019,49.142,49.142,0,0,1,9.35-.862q13.215,0,21.42,5.175,8.19,5.175,8.48,16.387h31.05Zm155.25,0q0.285-13.8-4.17-23a37.162,37.162,0,0,0-12.36-14.662,49.681,49.681,0,0,0-18.55-7.619,114.227,114.227,0,0,0-22.71-2.156,97.034,97.034,0,0,0-22.43,2.587,63.77,63.77,0,0,0-19.55,8.05,43.469,43.469,0,0,0-13.94,14.088q-5.325,8.625-5.32,20.7a36.244,36.244,0,0,0,2.59,14.375,31.864,31.864,0,0,0,7.19,10.494,46.387,46.387,0,0,0,10.49,7.618,85.963,85.963,0,0,0,12.51,5.463q7.755,2.877,15.95,5.031a97.447,97.447,0,0,1,14.67,5.031,40.529,40.529,0,0,1,10.63,6.613,12.187,12.187,0,0,1,4.17,9.487,17.371,17.371,0,0,1-3.02,10.494,20.637,20.637,0,0,1-7.62,6.469,37.375,37.375,0,0,1-10.06,3.306,58.4,58.4,0,0,1-10.64,1.006,56.871,56.871,0,0,1-13.22-1.437,31.381,31.381,0,0,1-10.49-4.456,20.016,20.016,0,0,1-6.9-8.05,24.647,24.647,0,0,1-2.16-11.932h-31.05q0.285,15.243,5.17,25.157a41.261,41.261,0,0,0,13.23,15.812,52.893,52.893,0,0,0,19.55,8.338,113.45,113.45,0,0,0,24.15,2.443,107.376,107.376,0,0,0,24.01-2.731,64.34,64.34,0,0,0,21.13-8.769,49.375,49.375,0,0,0,14.95-15.237q5.745-9.2,5.75-22.138a36.82,36.82,0,0,0-2.88-15.093,35,35,0,0,0-7.62-11.069,44.147,44.147,0,0,0-11.07-7.763q-6.315-3.159-12.93-5.75-7.77-2.87-15.53-5.031t-14.09-4.6a37.474,37.474,0,0,1-10.2-5.606,10.218,10.218,0,0,1-3.88-8.338,17.447,17.447,0,0,1,2.15-9.056,16.523,16.523,0,0,1,5.75-5.75,24.64,24.64,0,0,1,8.05-3.019,49.142,49.142,0,0,1,9.35-.862q13.215,0,21.42,5.175,8.19,5.175,8.48,16.387h31.05Zm58.22,50.169a35.634,35.634,0,0,1,13.51-7.475,73.229,73.229,0,0,1,16.96-3.019q9.06-.572,15.96-1.15a80.8,80.8,0,0,0,11.21-2.012,19.31,19.31,0,0,0,9.2-4.888l0.57,0.575a135.67,135.67,0,0,1-4.74,19.982,52.9,52.9,0,0,1-8.34,16.243,37.863,37.863,0,0,1-13.51,10.925q-8.19,4.03-20.27,4.025a42.737,42.737,0,0,1-9.2-1.006,28.866,28.866,0,0,1-8.34-3.162,18.663,18.663,0,0,1-6.18-5.75,15.744,15.744,0,0,1-2.44-9.057Q2604.96,339.519,2610.57,334.484ZM2714.5,293.8a108.877,108.877,0,0,0,2.87-22.425,53.1,53.1,0,0,0-1.15-9.919q-1.155-5.889-6.47-11.356t-16.67-9.344q-11.37-3.88-31.48-3.881a121.129,121.129,0,0,0-24.87,2.444,61.975,61.975,0,0,0-20.85,8.337,53.423,53.423,0,0,0-15.52,15.238q-6.33,9.345-8.91,23.143h31.05q3.45-13.8,13.51-18.543t23.57-4.744a40.077,40.077,0,0,1,17.54,3.594q7.47,3.6,7.48,14.231c0,5.561-1.4,10.112-4.17,13.656s-7.14,5.512-13.08,5.894q-8.055.579-16.25,1.294t-16.53,1.293a131.783,131.783,0,0,0-23.57,3.738,60.393,60.393,0,0,0-19.84,8.912,45.334,45.334,0,0,0-13.8,15.382q-5.175,9.345-5.18,23.143a38.09,38.09,0,0,0,3.74,17.25,34.678,34.678,0,0,0,10.21,12.363,47.714,47.714,0,0,0,14.8,7.475,58.872,58.872,0,0,0,17.54,2.587,81.825,81.825,0,0,0,27.03-4.6,59.944,59.944,0,0,0,23-14.375q0.57,8.625,6.03,13.8a19.261,19.261,0,0,0,13.8,5.175,64.468,64.468,0,0,0,12.94-1.293q6.33-1.295,12.65-2.732l5.18-23.575a40.692,40.692,0,0,0-5.75,1.007,23.648,23.648,0,0,1-5.75.718q-4.035,0-5.47-1.725a7.415,7.415,0,0,1-1.43-4.887,26.707,26.707,0,0,1,1-6.9c0.67-2.489,1.3-5.076,1.87-7.763Z" transform="translate(-0.969)"/>
</svg>
